<svg width="1280" height="20" viewBox="0 0 1280 20" fill="none" xmlns="http://www.w3.org/2000/svg">
<mask id="mask0_0_294156" style="mask-type:luminance" maskUnits="userSpaceOnUse" x="0" y="0" width="1280" height="20">
<rect x="1280" width="20" height="1280" transform="rotate(90 1280 0)" fill="white"></rect>
</mask>
<g mask="url(#mask0_0_294156)">
<path fill-rule="evenodd" clip-rule="evenodd" d="M253.005 78.3523C254.498 78.5228 256.246 78.7225 258.403 79.0212C259.473 79.2804 260.549 79.4556 261.469 79.6053C262.956 79.8475 264.033 80.0228 264.006 80.3782C267.457 80.2717 271.354 80.3681 275.341 80.4667C281.266 80.6132 287.39 80.7647 292.544 80.2627C292.587 79.6877 295.432 79.7912 298.278 79.8946C306.813 80.205 318.193 80.6189 323.927 80.2507C331.844 79.7424 338.364 79.733 345.401 79.7229C348.557 79.7183 351.817 79.7136 355.354 79.6637C359.519 79.8152 363.708 79.6585 369.019 79.4598C370.963 79.3871 373.057 79.3088 375.356 79.2379C376.8 79.0021 378.223 79.0538 380.001 79.1185C381.779 79.1831 383.913 79.2607 386.78 79.0767C392.47 79.2836 398.16 79.4905 403.894 79.1224C407.655 79.0064 410.861 78.981 413.759 78.9581C417.471 78.9287 420.677 78.9033 423.897 78.6966C428.703 78.2285 435.264 78.0034 442.116 77.7683C447.557 77.5817 453.18 77.3888 458.255 77.0629C472.568 76.4302 489.725 75.9009 503.994 75.8432C515.461 75.1069 529.73 75.0492 541.111 75.463C541.862 75.6448 542.408 75.8192 542.915 75.9811C544.301 76.4233 545.394 76.772 549.559 76.9235L558.095 77.2339C564.114 76.8474 570.894 76.8064 578.047 76.7631C584.521 76.7239 591.301 76.6828 598.1 76.3822C603.79 76.5891 606.635 76.6926 609.524 76.221C620.948 76.0598 635.217 76.0021 646.597 76.416C658.021 76.2548 666.6 75.9901 675.222 75.1504L680.912 75.3574C685.201 75.225 690.213 74.9748 695.224 74.7246C700.236 74.4744 705.248 74.2242 709.537 74.0918C720.917 74.5057 729.496 74.241 738.075 73.9764C743.765 74.1833 749.499 73.8152 755.232 73.4471C763.811 73.1824 778.08 73.1247 792.262 74.217C798.234 73.8336 805.726 73.8182 813.557 73.8022C820.762 73.7874 828.254 73.772 835.113 73.4688C840.312 73.3955 845.539 72.9647 851.036 72.5117C857.616 71.9694 864.585 71.3951 872.36 71.3636C874.735 71.2111 878.078 71.1928 881.996 71.1714C887.536 71.141 894.224 71.1044 900.941 70.6731C902.342 71.0124 903.754 71.2079 905.165 71.4033C906.577 71.5988 907.989 71.7943 909.39 72.1336C921.54 72.5754 931.646 72.5223 943.226 72.4614C945.205 72.451 947.226 72.4404 949.308 72.432C952.24 71.3854 957.93 71.5923 960.775 71.6957C963.62 71.7992 966.476 71.7589 969.332 71.7186C972.188 71.6783 975.044 71.638 977.889 71.7415C989.27 72.1553 1000.65 72.5692 1012.12 71.8329C1015.96 71.4591 1020.32 71.5617 1024.75 71.6657C1030.27 71.7954 1035.89 71.9273 1040.7 71.1424C1045.55 71.074 1050.4 70.902 1055.48 70.7223C1062.36 70.4785 1069.65 70.2205 1077.86 70.1873C1083.55 70.3942 1086.39 70.4977 1089.28 70.0261C1090.71 70.0779 1092.14 69.9858 1093.57 69.8938C1095.01 69.8018 1096.44 69.7097 1097.86 69.7615C1105.45 70.0374 1113.07 69.8021 1120.7 69.5669C1124.51 69.4493 1128.33 69.3316 1132.13 69.2779C1134.51 69.1254 1137.86 69.0085 1141.79 68.8714C1147.34 68.6776 1154.04 68.4437 1160.76 68.0124C1180.76 67.5865 1200.81 66.5857 1215.16 65.3779C1220.9 65.0098 1226.59 65.2167 1232.28 65.4236C1239.08 64.6483 1246.14 63.8821 1253.29 63.1047C1270.35 61.2524 1287.98 59.3367 1304.23 57.0845C1307.12 56.6129 1310.01 56.1413 1312.98 54.5197C1318.72 54.1516 1324.49 53.2084 1324.54 52.6334C1330.36 51.1152 1336.09 50.7471 1341.82 50.379C1344.71 49.9074 1344.76 49.3324 1344.8 48.7573C1349.03 48.0669 1353.23 47.6846 1358.57 47.2C1360.52 47.0225 1362.62 46.8314 1364.93 46.6064L1359.33 45.2494C1357.53 45.1839 1355.72 45.176 1353.82 45.1678C1349.73 45.1499 1345.22 45.1302 1339.41 44.5252C1339.41 44.5252 1342.3 44.0536 1342.35 43.4786C1337.7 42.8351 1334.92 43.0405 1330.89 43.3385C1330.02 43.4026 1329.09 43.4711 1328.08 43.5363L1322.39 43.3294C1320.65 42.5425 1322.25 42.3311 1323.69 42.1405C1324.55 42.0275 1325.35 41.9218 1325.36 41.7077C1327.23 42.1601 1329.14 42.1012 1331.04 42.0424C1332 42.013 1332.95 41.9836 1333.9 42.0181C1335.66 42.0821 1336.34 41.8868 1337.29 41.617C1337.88 41.4503 1338.57 41.2551 1339.67 41.075C1341.09 41.4171 1341.79 41.5867 1342.5 41.684C1343.2 41.7798 1343.91 41.8056 1345.32 41.8569C1346.94 41.5921 1347.68 41.1133 1348.54 40.5591C1349.2 40.1263 1349.94 39.6476 1351.23 39.1887L1351.36 37.4636C1349.96 37.1243 1348.54 37.0726 1347.11 37.0209C1345.69 36.9691 1344.27 36.9174 1342.87 36.5781C1341.42 36.8139 1339.99 36.906 1338.56 36.998C1337.12 37.09 1335.69 37.182 1334.24 37.4178C1330.96 36.6229 1332.53 36.4002 1333.83 36.2156C1334.75 36.0851 1335.54 35.9738 1334.37 35.6927C1334.44 34.8508 1332.93 34.5698 1331.02 34.2134C1330.32 34.083 1329.57 33.9425 1328.81 33.7607C1327.06 33.6967 1326.4 33.4527 1325.5 33.1154C1324.94 32.9069 1324.28 32.6629 1323.21 32.4037C1320.37 32.3002 1317.48 32.7718 1317.48 32.7718C1313.24 32.1853 1313.81 31.7735 1314.37 31.3616C1314.56 31.2243 1314.75 31.087 1314.76 30.9432L1314.76 30.9432C1311.96 30.2648 1311.96 30.2647 1309.12 30.1613C1309.16 29.5863 1312 29.6897 1312 29.6897L1320.54 30.0001C1320.57 29.5927 1321.32 29.2112 1322.01 28.8537C1323.29 28.202 1324.4 27.6299 1320.76 27.1249L1315.07 26.918C1311.6 26.0793 1313.52 26.0972 1316.18 26.1219C1317.82 26.1371 1319.74 26.155 1320.84 25.9749C1320.33 25.7414 1319.91 25.5514 1319.48 25.4009C1317.59 24.7433 1315.42 24.8392 1303.77 25.3541L1303.82 24.7791C1302.42 24.4398 1303.86 24.204 1305.67 23.9093C1307.47 23.6145 1309.64 23.2609 1309.68 22.6858C1309.7 22.4346 1309.71 22.2383 1309.64 22.0935C1309.36 21.5758 1307.88 21.7192 1301.15 22.3755C1299.39 22.3115 1298.73 22.0674 1297.83 21.7302C1297.27 21.5217 1296.61 21.2776 1295.54 21.0185C1296.99 20.7827 1297.72 20.521 1298.45 20.2594C1299.19 19.9977 1299.92 19.7361 1301.36 19.5003C1299.96 19.161 1298.55 18.9655 1297.14 18.7701C1295.73 18.5746 1294.31 18.3791 1292.91 18.0398C1291.53 17.4131 1292.99 17.0335 1294.45 16.654C1295.9 16.2744 1297.36 15.8949 1295.98 15.2681C1289.64 14.3902 1284.11 14.6321 1278.98 14.8566C1274.97 15.032 1271.21 15.1969 1267.48 14.8085L1267.48 14.8085C1270.37 14.3369 1273.26 13.8654 1273.3 13.2903C1276.23 12.2438 1282.01 11.3007 1284.9 10.8291L1284.9 10.829C1284.9 10.829 1284.93 10.3888 1283.06 9.82415L1282.87 9.77501L1283.23 9.92685C1283.51 10.1198 1282.75 10.1999 1281.6 10.3216C1280.9 10.3952 1280.06 10.484 1279.21 10.6221C1276.41 9.94359 1273.56 9.84013 1273.56 9.84013C1275.01 9.60434 1276.46 9.2248 1277.92 8.84525C1279.37 8.4657 1280.83 8.08615 1282.27 7.85036C1280.35 6.97638 1276.96 7.17024 1274.12 7.33269C1272.88 7.40323 1271.75 7.46785 1270.89 7.43653L1262.62 3.67592L1262.66 3.10091C1259.43 2.98342 1257.16 2.3432 1254.76 1.66857C1252.94 1.15497 1251.05 0.621443 1248.61 0.283451L1248.7 -0.866617C1243.09 -2.2236 1237.45 -3.00557 1226.06 -3.41941C1224.89 -3.46227 1222.74 -3.63928 1220.22 -3.84666C1216.67 -4.13996 1212.37 -4.494 1209.04 -4.61521C1189.03 -4.18939 1171.88 -3.66008 1151.83 -2.6592C1148 -2.48966 1144.57 -2.30525 1141.39 -2.13409C1132.7 -1.66646 1125.85 -1.29765 1117.52 -1.60061C1097.6 -2.32485 1083.29 -1.69207 1066.09 -0.587725C1060.4 -0.794644 1054.67 -0.490423 1048.94 -0.186201C1046.07 -0.0340973 1043.21 0.118006 1040.35 0.206218C1037.51 0.10275 1031.77 0.470864 1031.73 1.0459C1023.15 1.31055 1014.57 1.57519 1003.19 1.16135C1000.35 1.05789 994.612 1.426 991.723 1.89758L986.033 1.69067C977.476 1.6678 968.908 1.78868 960.34 1.90956C951.772 2.03046 943.204 2.15135 934.647 2.12848C930.358 2.2608 926.791 2.27524 923.224 2.28967C919.656 2.3041 916.089 2.31855 911.8 2.45088C907.51 2.58319 903.232 2.57176 898.953 2.56032C894.675 2.54889 890.396 2.53745 886.107 2.66978C877.855 3.36404 870.6 3.33249 863.205 3.30032C857.735 3.27654 852.187 3.25242 846.102 3.52147C843.256 3.41801 840.411 3.31454 837.523 3.78612C835.247 3.70335 833.867 3.8377 832.488 3.97205C830.418 4.17357 828.349 4.37509 823.254 3.84383C819.737 3.71595 818.377 3.88674 816.498 4.12278C815.336 4.26866 813.977 4.43946 811.786 4.58006C794.673 4.53432 777.516 5.06359 760.359 5.59287L760.357 5.59293C748.933 5.75412 740.355 6.01877 731.733 6.85845C730.31 6.80672 729.588 6.92462 728.866 7.04251C728.143 7.1604 727.421 7.2783 725.999 7.22657C717.442 7.2037 708.152 7.44248 698.862 7.68126C689.572 7.92004 680.282 8.15884 671.725 8.13597L668.836 8.60755C663.124 8.68814 656.69 8.88664 650.256 9.08512C643.822 9.2836 637.388 9.48209 631.676 9.56269C623.141 9.2523 611.76 8.83845 605.983 9.7816C604.198 10.073 603.533 9.96474 602.613 9.81504C602.045 9.72252 601.38 9.6142 600.293 9.57468C593.25 9.55586 586.674 9.74935 580.183 9.94031C570.903 10.2134 561.798 10.4813 551.752 10.116C549.06 10.199 546.928 10.3025 545.006 10.3957C540.804 10.5996 537.606 10.7548 531.75 10.5418C528.883 10.7259 525.316 10.7403 521.748 10.7547C518.181 10.7692 514.614 10.7836 511.747 10.9677C508.281 11.5335 504.861 11.4784 501.442 11.4232C499.162 11.3865 496.883 11.3497 494.589 11.497C488.856 11.8651 480.277 12.1297 471.742 11.8193C466.008 12.1874 460.274 12.5556 451.739 12.2452C443.725 12.3583 435.689 12.7544 426.664 13.1992C422.825 13.3884 418.807 13.5865 414.536 13.7753C406.489 13.7538 399.042 14.1366 391.336 14.5327C382.652 14.979 373.638 15.4423 363.063 15.3632C359.255 15.417 355.452 15.4068 351.649 15.3967C344.042 15.3763 336.436 15.356 328.791 15.8468C317.367 16.008 303.098 16.0657 288.829 16.1235C274.517 16.7562 254.558 16.607 234.599 16.4578C228.865 16.8259 220.286 17.0906 214.596 16.8837C210.431 16.7322 206.242 16.8889 200.931 17.0875C198.987 17.1602 196.892 17.2386 194.593 17.3095C190.282 17.7293 185.282 17.8358 180.281 17.9423C175.28 18.0487 170.28 18.1552 165.969 18.575C163.868 18.5835 161.645 18.5875 159.325 18.5917C145.884 18.616 129.209 18.6461 114.539 19.5879C113.095 19.8237 111.662 19.9157 110.228 20.0077C108.795 20.0998 107.362 20.1918 105.917 20.4276C100.227 20.2207 95.2373 20.1834 90.2475 20.1461C85.2578 20.1088 80.2679 20.0715 74.5776 19.8645C57.0657 20.4048 35.6422 20.2688 13.8512 20.1305C3.61729 20.0656 -6.6977 20.0001 -16.7265 20.004C-25.3052 20.2686 -36.729 20.4298 -48.1095 20.016C-65.2235 19.9702 -79.4926 20.028 -96.6501 20.5573C-110.876 20.04 -127.99 19.9942 -142.259 20.0519L-153.639 19.6381C-156.571 20.6847 -162.261 20.4778 -165.106 20.3743C-175.087 20.2997 -184.355 20.251 -193.624 20.2023C-202.892 20.1535 -212.16 20.1048 -222.139 20.0302C-222.938 20.0012 -223.957 19.9186 -225.138 19.8231C-228.162 19.5783 -232.241 19.2481 -236.365 19.5129C-250.677 20.1457 -267.834 20.675 -284.905 20.0542C-302.019 20.0085 -321.978 19.8593 -339.049 19.2385C-342.11 19.2817 -344.759 19.2985 -347.219 19.314C-353.937 19.3565 -359.236 19.39 -367.63 19.929C-373.364 20.2971 -381.943 20.5617 -390.478 20.2514C-394.239 20.3674 -397.446 20.3928 -400.343 20.4157C-404.055 20.4451 -407.261 20.4705 -410.481 20.6772C-415.929 21.0269 -421.999 21.0938 -427.795 21.1576C-434.2 21.2282 -440.27 21.295 -444.796 21.7358C-447.663 21.9199 -449.797 21.8423 -452.286 21.7517C-454.776 21.6612 -457.621 21.5577 -461.91 21.6901C-465.001 21.8885 -469.746 22.0268 -474.794 21.9734C-472.08 22.2578 -469.389 22.5673 -466.698 22.8986C-455.273 22.7301 -443.847 22.5615 -432.465 22.9936L-432.552 24.1946L-449.625 23.5466C-452.471 23.4386 -455.327 23.4807 -458.184 23.5229C-461.04 23.565 -463.896 23.6071 -466.742 23.4991L-472.433 23.2831C-483.772 22.2505 -495.197 22.4191 -506.623 22.5876C-508.425 22.5192 -510.516 22.5002 -512.713 22.4802C-517.453 22.4371 -522.682 22.3895 -526.542 21.8315C-530.167 21.4369 -534.335 21.3508 -538.578 21.2632C-544.276 21.1455 -550.111 21.025 -554.954 20.1509C-557.799 20.0429 -563.49 19.8269 -566.423 20.92L-566.466 21.5205C-557.93 21.8445 -552.239 22.0606 -546.678 24.0782C-550.012 23.9517 -552.354 23.6561 -554.295 23.4113C-555.667 23.2381 -556.838 23.0904 -558.017 23.0456C-563.751 23.4302 -569.442 23.2141 -572.288 23.1061C-579.043 22.8498 -583.989 22.285 -589.967 21.6023C-591.544 21.4222 -593.193 21.234 -594.965 21.041C-593.521 20.7947 -592.087 20.6986 -590.654 20.6025C-589.22 20.5063 -587.786 20.4102 -586.342 20.1639L-583.496 20.272C-582.635 20.3047 -581.516 20.4023 -580.295 20.5089C-577.484 20.7544 -574.128 21.0474 -572.114 20.704C-572.071 20.1034 -569.182 19.6109 -569.182 19.6109C-561.422 19.3608 -553.663 19.1108 -548.04 19.225C-549.898 18.8226 -551.688 18.3598 -552.91 17.8043C-558.644 18.1724 -564.377 18.5405 -570.068 18.3336C-571.49 18.2818 -572.19 18.1122 -573.241 17.8578C-574.292 17.6033 -575.693 17.2641 -578.516 16.8731L-584.293 17.8163C-590.797 16.6919 -597.379 16.59 -602.66 16.5082C-604.239 16.4838 -605.701 16.4611 -607.011 16.4135L-649.557 13.1365C-655.247 12.9296 -666.584 11.9407 -672.231 11.1587C-675.119 11.6303 -675.163 12.2054 -672.361 12.8838C-672.405 13.4589 -672.405 13.4589 -669.603 14.1374C-678.225 14.9771 -681.157 16.0237 -681.288 17.7488C-682.444 18.1616 -684.037 18.4689 -685.546 18.7602C-687.864 19.2074 -689.988 19.6171 -690.04 20.3136C-694.739 20.1427 -698.588 20.1775 -702.049 20.2087C-704.875 20.2342 -707.441 20.2574 -709.999 20.1644C-735.779 21.5334 -753.153 24.9378 -767.683 28.4458C-769.127 28.6816 -769.86 28.9432 -770.593 29.2048C-771.326 29.4665 -772.059 29.7282 -773.504 29.9639C-773.574 30.8921 -775.291 31.7603 -777.34 32.7961C-779.099 33.6855 -781.102 34.6985 -782.517 35.979C-784.004 36.7898 -784.781 37.6265 -785.557 38.4631C-786.334 39.2998 -787.11 40.1365 -788.598 40.9474C-788.728 42.6725 -788.858 44.3976 -791.877 46.5942C-789.075 47.2727 -786.274 47.9512 -786.317 48.5263C-785.069 49.9413 -784.462 51.3331 -783.883 52.662C-783.244 54.1303 -782.638 55.522 -781.235 56.7837C-784.297 59.5554 -781.626 61.959 -778.955 64.3626C-776.37 67.9163 -768.052 71.1018 -754.044 74.4943C-745.595 75.9548 -734.258 76.9437 -720.076 78.036C-715.83 78.4787 -712.284 78.7518 -708.739 79.0249C-705.193 79.298 -701.648 79.571 -697.402 80.0138C-694.149 80.2975 -691.134 80.62 -688.218 80.932C-680.972 81.7072 -674.339 82.4168 -666.193 82.3019C-657.404 83.0685 -650.351 84.1186 -644.993 84.9162C-643.44 85.1474 -642.029 85.3575 -640.76 85.5332C-632.312 86.9936 -626.666 87.7755 -615.373 89.3393L-615.372 89.3395C-612.483 88.8679 -611.028 88.4884 -609.573 88.1088C-608.117 87.7293 -606.662 87.3498 -603.774 86.8782L-603.644 85.1531C-602.54 84.973 -601.852 84.7777 -601.264 84.611C-600.313 84.3412 -599.625 84.146 -597.867 84.2099C-594.978 83.7384 -594.935 83.1633 -594.891 82.5883L-603.296 80.5528C-603.253 79.9778 -606.054 79.2993 -606.054 79.2993C-593.35 79.3942 -588.732 79.4288 -584.118 79.548C-581.484 79.6162 -578.851 79.7119 -574.715 79.8623C-574.628 78.7123 -574.541 77.5622 -577.299 76.3086C-573.134 76.4601 -570.47 76.248 -567.092 75.979C-565.855 75.8806 -564.523 75.7745 -562.987 75.6759L-562.943 75.1009C-568.634 74.8939 -577.125 74.0085 -582.772 73.2266C-582.712 72.4325 -578.625 72.3347 -574.213 72.229C-572.235 72.1816 -570.192 72.1327 -568.416 72.0187C-569.817 71.6795 -571.229 71.484 -572.641 71.2885C-574.052 71.093 -575.464 70.8975 -576.865 70.5583L-579.667 69.8798L-573.976 70.0867C-565.882 70.054 -556.844 69.6844 -548.453 69.3413C-542.051 69.0796 -536.026 68.8332 -531.083 68.7635C-524.942 68.1654 -518.845 68.1508 -511.717 68.1336C-508.837 68.1267 -505.789 68.1194 -502.501 68.073L-502.414 66.9229L-525.175 66.0952C-529.164 66.7464 -534.467 66.8 -540.192 66.8579C-542.759 66.8839 -545.411 66.9107 -548.066 66.9926C-549.64 66.6116 -552.124 66.3793 -555 66.1104C-557.245 65.9004 -559.729 65.6681 -562.205 65.3253C-564.158 64.8522 -567.537 64.8879 -570.368 64.9178C-571.598 64.9308 -572.724 64.9427 -573.586 64.9114C-571.848 64.2913 -568.16 64.3494 -564.841 64.4017C-562.558 64.4376 -560.45 64.4708 -559.273 64.2786C-557.851 64.3304 -557.128 64.2125 -556.406 64.0946C-555.684 63.9767 -554.962 63.8588 -553.54 63.9105C-556.822 63.1156 -560.149 62.9127 -562.905 62.7446C-564.854 62.6257 -566.518 62.5242 -567.678 62.2432L-567.548 60.518C-573.195 59.7361 -576.04 59.6326 -581.73 59.4257C-581.773 60.0007 -584.662 60.4723 -587.55 60.9439C-587.529 60.6564 -588.24 60.6305 -588.951 60.6046C-589.662 60.5788 -590.374 60.5529 -590.352 60.2654C-593.154 59.5869 -593.11 59.0119 -593.11 59.0119L-593.067 58.4368C-598.714 57.6549 -604.361 56.8729 -610.051 56.666L-609.964 55.5159C-607.379 55.7414 -604.792 55.937 -602.272 56.1274C-593.74 56.7724 -585.979 57.3591 -581.687 58.8507C-575.996 59.0576 -573.151 59.1611 -570.263 58.6895L-570.132 56.9644C-570.132 56.9644 -567.287 57.0678 -567.244 56.4928C-561.554 56.6997 -555.853 56.7629 -550.151 56.8261C-544.45 56.8892 -538.749 56.9524 -533.059 57.1593C-533.037 56.8718 -532.304 56.6101 -531.571 56.3485C-530.838 56.0868 -530.105 55.8252 -530.084 55.5377L-513.013 56.1584C-511.391 55.8936 -508.885 55.8428 -505.985 55.7839C-503.72 55.7379 -501.214 55.6871 -498.7 55.5257C-498.722 55.8132 -498.033 56.1266 -497.343 56.4399C-496.654 56.7533 -495.964 57.0667 -495.986 57.3542C-487.407 57.0896 -481.717 57.2965 -476.027 57.5034C-471.737 57.3711 -468.181 57.5004 -464.624 57.6298C-461.068 57.7591 -457.512 57.8884 -453.222 57.7561C-447.445 56.8129 -441.755 57.0199 -433.22 57.3303C-433.22 57.3303 -430.418 58.0087 -430.461 58.5838C-427.595 58.3997 -426.139 58.0202 -424.684 57.6406C-423.229 57.2611 -421.774 56.8815 -418.907 56.6975L-407.527 57.1113C-410.415 57.5829 -413.304 58.0545 -416.149 57.951C-413.678 58.5494 -410.62 58.7207 -407.74 58.8819C-404.09 59.0863 -400.726 59.2747 -399.209 60.2969L-402.097 60.7685C-403.899 60.7029 -405.981 60.5694 -408.168 60.4292C-412.888 60.1265 -418.095 59.7927 -422.013 60.0442C-423.771 59.9803 -424.46 60.1755 -425.411 60.4453C-425.998 60.612 -426.687 60.8073 -427.79 60.9874C-433.48 60.7805 -436.325 60.677 -441.972 59.895C-444.691 60.1598 -447.684 60.3 -450.603 60.4366C-456.94 60.7333 -462.927 61.0136 -464.994 62.5176C-463.571 62.5693 -462.871 62.7389 -462.17 62.9085C-461.47 63.0782 -460.769 63.2478 -459.347 63.2995C-455.912 63.6577 -452.913 63.6225 -450.004 63.5884C-445.723 63.5382 -441.634 63.4902 -436.629 64.7022C-435.185 64.4665 -433.03 64.2565 -430.874 64.0466C-428.718 63.8367 -426.563 63.6268 -425.119 63.391L-419.428 63.5979C-422.23 62.9194 -422.143 61.7693 -416.496 62.5513L-416.627 64.2764C-420.478 64.9052 -424.291 65.0228 -428.104 65.1404C-430.01 65.1992 -431.916 65.258 -433.828 65.3807C-439.213 65.5469 -443.494 65.9803 -447.353 66.3711C-449.642 66.6029 -451.783 66.8196 -453.917 66.9567C-456.762 66.8532 -462.453 66.6463 -468.273 68.1644C-456.936 69.1533 -442.711 69.6706 -422.664 68.6698C-422.664 68.6698 -419.863 69.3483 -417.018 69.4517L-405.637 69.8656C-403.348 69.0484 -401.112 68.9323 -397.512 68.7455C-396.501 68.693 -395.383 68.635 -394.126 68.5543C-394.083 67.9793 -394.04 67.4042 -391.151 66.9327C-385.374 65.9895 -382.486 65.5179 -376.795 65.7249C-372.974 65.8638 -370.268 65.6156 -367.681 65.3784C-364.49 65.0858 -361.483 64.81 -356.792 65.299C-355.26 64.7521 -352.987 64.7045 -350.34 64.6492C-347.923 64.5986 -345.195 64.5415 -342.437 64.0912C-337.791 64.2602 -335.013 63.9768 -329.456 63.4101C-328.207 63.2827 -326.818 63.141 -325.236 62.9869C-337.613 62.5368 -350.037 62.6913 -361.372 62.8323C-365.669 62.8858 -369.81 62.9373 -373.733 62.9531C-376.378 62.857 -378.427 63.0316 -380.144 63.178C-382.121 63.3465 -383.657 63.4775 -385.157 63.1143C-385.135 62.8268 -384.413 62.7089 -383.691 62.591C-382.969 62.4731 -382.247 62.3552 -382.225 62.0677C-374.347 62.3542 -366.431 62.1508 -358.513 61.9097L-361.975 61.1111C-363.68 61.0935 -365.426 61.1092 -367.284 61.126C-370.744 61.1572 -374.594 61.192 -379.293 61.0211C-376.607 60.8487 -375.794 60.6081 -375.095 60.3041C-375.723 60.245 -376.389 60.1698 -377.097 60.0763C-376.007 60.0101 -375.018 59.9405 -374.111 59.8752C-373.458 59.6237 -372.486 59.3419 -370.584 59.0314C-370.584 59.0314 -367.695 58.5598 -361.962 58.1917C-367.652 57.9848 -372.642 57.9475 -377.631 57.9102C-382.621 57.8729 -387.611 57.8356 -393.301 57.6286C-384.679 56.789 -378.989 56.9959 -370.454 57.3063C-370.443 57.168 -370.435 57.063 -370.468 56.9738C-370.572 56.692 -371.084 56.5681 -373.212 56.0527C-384.805 55.6312 -389.649 55.455 -394.497 55.5062C-397.977 55.5429 -401.459 55.6968 -407.44 55.9613C-411.729 56.0936 -416.008 56.0822 -420.286 56.0707C-424.565 56.0593 -428.843 56.0479 -433.133 56.1802C-434.534 55.8409 -435.945 55.6454 -437.357 55.45C-438.769 55.2545 -440.18 55.059 -441.581 54.7197C-441.538 54.1447 -441.538 54.1447 -438.693 54.2482C-438.642 53.5745 -440.558 53.0271 -442.146 52.5736C-443.269 52.253 -444.227 51.9793 -444.209 51.7411C-444.198 51.5943 -444.19 51.4849 -444.136 51.4052C-443.98 51.1728 -443.439 51.1925 -441.321 51.2695C-437.053 51.4247 -432.774 51.4361 -428.496 51.4476C-424.217 51.459 -419.939 51.4704 -415.671 51.6256L-404.291 52.0395L-401.402 51.5679C-399.98 51.6196 -398.568 51.8151 -397.156 52.0106C-395.745 52.2061 -394.333 52.4016 -392.91 52.4533C-391.488 52.5051 -390.755 52.2434 -390.022 51.9818C-389.289 51.7201 -388.556 51.4584 -387.133 51.5102C-385.711 51.5619 -382.876 51.8091 -380.042 52.0564C-377.208 52.3036 -374.374 52.5508 -372.951 52.6025C-367.218 52.2344 -361.527 52.4413 -355.837 52.6483C-355.794 52.0732 -350.06 51.7051 -347.215 51.8086C-344.413 52.4871 -344.457 53.0621 -344.5 53.6371L-341.698 54.3156C-338.853 54.4191 -335.286 54.4047 -331.719 54.3902C-328.152 54.3758 -324.584 54.3614 -321.739 54.4648C-324.671 55.5114 -330.361 55.3045 -333.207 55.2011L-347.432 54.6837L-347.562 56.4072L-330.492 57.0296C-327.185 56.8173 -323.893 56.7963 -320.608 56.8562L-320.572 56.3932C-308.886 56.047 -304.989 55.9316 -301.12 56.1536C-299.184 56.2647 -297.256 56.4602 -294.362 56.7535C-296.435 56.882 -298.503 56.9391 -300.44 56.98C-300.012 56.9885 -299.57 57.0009 -299.109 57.0176C-295.856 57.4681 -291.616 57.3804 -286.974 57.2845C-283.557 57.2138 -279.923 57.1387 -276.304 57.2703C-273.747 57.3633 -270.605 57.361 -267.147 57.3585C-262.911 57.3555 -258.199 57.3521 -253.5 57.5229C-244.943 57.5458 -237.097 57.5428 -229.251 57.5398C-221.406 57.5368 -213.56 57.5338 -205.003 57.5567C-199.313 57.7636 -193.622 57.9705 -187.889 57.6024C-185 57.1308 -182.155 57.2343 -179.353 57.9128C-177.931 57.9645 -177.209 57.8466 -176.487 57.7287C-175.765 57.6109 -175.042 57.493 -173.62 57.5447L-119.563 59.5105C-124.645 60.0895 -129.711 60.4443 -134.53 60.7817C-140.625 61.2085 -146.324 61.6076 -151.163 62.3976C-148.361 63.0761 -148.405 63.6512 -148.448 64.2262C-150.07 64.491 -150.754 64.2444 -151.546 63.959C-152.164 63.7362 -152.847 63.4896 -154.095 63.4442C-167.268 64.7272 -182.001 64.6074 -194.584 64.505C-198.472 64.4734 -202.155 64.4435 -205.524 64.4571C-207.652 63.9417 -208.164 63.8178 -208.268 63.5361C-208.301 63.4469 -208.293 63.3418 -208.282 63.2036C-205.394 62.732 -202.505 62.2604 -202.462 61.6854L-202.418 61.1104C-208.109 60.9034 -216.644 60.593 -225.223 60.8577C-228.877 61.0924 -232.497 60.8597 -236.852 60.5797C-239.329 60.4205 -242.044 60.246 -245.138 60.1335C-250.915 61.0766 -259.538 61.9163 -265.184 61.1343C-265.857 61.2442 -266.529 61.3384 -267.195 61.42C-265.72 61.5933 -263.974 61.8061 -265.938 62.8242C-268.894 63.2822 -271.763 62.6205 -271.719 62.0606C-271.713 61.9839 -271.762 61.9052 -271.835 61.8271C-272.839 61.8878 -273.8 61.933 -274.702 61.9754C-276.667 62.0679 -278.344 62.1468 -279.54 62.3421C-281.326 62.6336 -283.094 62.7054 -285.538 62.8046C-287.049 62.8659 -288.818 62.9378 -291.008 63.0784C-288.048 63.186 -285.426 63.212 -282.909 63.237C-278.165 63.2842 -273.794 63.3276 -268.247 63.9061C-266.055 63.9858 -263.428 63.9102 -260.704 63.8318C-256.356 63.7067 -251.759 63.5745 -248.288 64.0552C-244.873 64.1794 -242.356 64.0864 -239.838 63.9935C-236.062 63.854 -232.285 63.7146 -225.483 64.3079C-225.527 64.8829 -228.415 65.3545 -231.26 65.2511C-233.157 65.1821 -235.092 65.6243 -237.028 66.0664C-237.996 66.2875 -238.963 66.5086 -239.926 66.6658C-245.66 67.0339 -251.35 66.827 -257.04 66.62C-259.329 67.4372 -261.565 67.5533 -265.165 67.7401C-266.176 67.7926 -267.294 67.8506 -268.551 67.9313C-270.017 67.2649 -269.083 66.8487 -268.308 66.5031C-267.625 66.1987 -267.065 65.949 -268.377 65.6312C-272.023 65.1262 -274.52 65.144 -277.363 65.1642C-278.923 65.1753 -280.587 65.1872 -282.603 65.1139C-284.499 65.0449 -286.435 65.487 -288.37 65.9292C-289.338 66.1503 -290.305 66.3714 -291.268 66.5286L-302.649 66.1147L-305.581 67.1613C-310.387 67.6294 -316.948 67.8545 -323.8 68.0896C-329.24 68.2762 -334.864 68.4691 -339.939 68.795C-335.693 69.2377 -331.415 69.2491 -327.136 69.2605C-322.858 69.272 -318.579 69.2834 -314.333 69.7261C-317.2 69.9102 -320.778 70.0684 -324.356 70.2266C-327.934 70.3848 -331.512 70.543 -334.379 70.727C-337.763 70.8314 -341.133 70.7568 -344.329 70.6862C-349.235 70.5777 -353.728 70.4783 -357.227 71.0494C-362.612 71.2155 -366.893 71.649 -370.752 72.0397C-373.041 72.2715 -375.182 72.4882 -377.316 72.6253L-395.628 71.9594L-395.667 72.465C-396.114 72.4927 -396.577 72.5198 -397.056 72.5461C-395.845 72.7086 -394.517 72.7933 -393.24 72.8748C-391.535 72.9835 -389.919 73.0866 -388.784 73.3615C-388.784 73.3615 -385.982 74.04 -383.137 74.1435C-381.121 74.2168 -379.095 74.1457 -377.195 74.0792C-373.732 73.9578 -370.693 73.8513 -368.911 74.6608C-371.843 75.7074 -380.465 76.5471 -394.734 76.6048C-394.778 77.1798 -397.666 77.6514 -400.555 78.123C-400.598 78.698 -403.443 78.5946 -403.443 78.5946C-407.733 78.7269 -412.011 78.7154 -416.29 78.704C-420.568 78.6926 -424.847 78.6811 -429.136 78.8135C-437.672 78.5031 -446.25 78.7677 -454.829 79.0324C-452.961 79.4847 -456.113 79.242 -459.265 78.9992C-460.84 78.8779 -462.416 78.7565 -463.365 78.722C-466.297 79.7686 -474.832 79.4582 -480.522 79.2513C-480.532 79.3896 -480.54 79.4946 -480.508 79.5838C-480.403 79.8656 -479.892 79.9895 -477.764 80.5048C-470.651 80.7635 -464.239 80.8525 -457.826 80.9416C-451.414 81.0306 -445.002 81.1196 -437.889 81.3783C-440.777 81.8498 -443.633 81.8901 -446.489 81.9304C-449.345 81.9707 -452.201 82.011 -455.09 82.4826C-457.978 82.9542 -460.867 83.4257 -463.842 85.0474C-459.553 84.9151 -455.986 84.9006 -452.418 84.8862C-448.851 84.8718 -445.284 84.8573 -440.995 84.725C-439.919 84.5495 -438.456 84.4679 -436.89 84.3808C-434.252 84.2338 -431.324 84.0707 -429.484 83.4138C-426.639 83.5172 -423.783 83.4769 -420.927 83.4366C-418.071 83.3963 -415.215 83.356 -412.37 83.4595C-409.546 83.8505 -406.001 84.1236 -402.455 84.3966C-398.91 84.6697 -395.364 84.9428 -392.541 85.3338C-390.756 85.0423 -388.987 84.9705 -386.543 84.8713C-385.032 84.81 -383.264 84.7382 -381.074 84.5976C-379.651 84.6493 -377.539 85.0144 -375.427 85.3795C-373.315 85.7446 -371.203 86.1097 -369.78 86.1615C-366.935 86.2649 -364.09 86.3684 -358.356 86.0003C-356.403 86.4734 -353.024 86.4376 -350.193 86.4077C-348.963 86.3947 -347.837 86.3828 -346.976 86.4141C-341.228 85.8543 -332.989 85.8977 -324.751 85.941C-320.631 85.9626 -316.512 85.9843 -312.704 85.9306C-307.014 86.1375 -301.324 86.3444 -295.59 85.9763C-289.9 86.1832 -284.21 86.3901 -281.321 85.9186C-279.045 86.0013 -276.755 85.9001 -274.465 85.7989C-271.03 85.647 -267.595 85.4951 -264.207 85.9643C-261.693 85.8029 -259.187 85.7521 -256.923 85.7061C-254.022 85.6472 -251.517 85.5964 -249.895 85.3315L-247.049 85.435C-241.337 85.3544 -235.615 85.1301 -229.892 84.9057C-224.169 84.6814 -218.446 84.457 -212.734 84.3764C-198.292 82.0185 -189.713 81.7539 -169.71 81.3281C-166.909 82.0065 -169.797 82.4781 -172.686 82.9497C-161.305 83.3635 -152.77 83.6739 -144.148 82.8342C-139.449 83.0051 -135.599 82.9704 -132.138 82.9391C-129.313 82.9136 -126.746 82.8904 -124.188 82.9834L-104.837 83.6855C-100.556 83.8311 -97.7633 83.862 -92.8488 83.5465L-75.7781 84.1673C-81.5118 84.5354 -84.4003 85.0069 -87.2889 85.4785C-82.1937 86.0098 -77.0517 85.92 -71.9097 85.8302C-68.4816 85.7703 -65.0536 85.7105 -61.6395 85.8346C-57.3501 85.7023 -53.0715 85.7137 -48.793 85.7252C-44.5145 85.7366 -40.2359 85.748 -35.9466 85.6157C-27.4113 85.9261 -18.8326 85.6614 -10.2104 84.8218C-8.31362 84.8907 -6.37827 84.4486 -4.44292 84.0064C-3.47525 83.7853 -2.50758 83.5642 -1.5447 83.407C-1.50128 82.832 -1.45774 82.257 -4.21599 81.0034L-1.3709 81.1069C2.0132 80.5544 5.35254 80.5939 8.11898 80.6266C10.0752 80.6497 11.7449 80.6695 12.9414 80.4741C10.1181 80.0832 6.55092 80.0976 2.98376 80.112C-0.583524 80.1265 -4.15081 80.1409 -6.97425 79.7499C-4.34969 79.6689 -1.71697 79.4803 0.997825 79.2858C7.15668 78.8446 13.7383 78.3731 21.6071 79.0594C21.6071 79.0594 27.2972 79.2663 30.0989 79.9448C30.0771 80.2323 29.3551 80.3502 28.633 80.4681C27.9108 80.586 27.1886 80.7039 27.167 80.9914L29.9685 81.6699L32.8138 81.7734C44.281 81.0372 52.8598 80.7725 64.2403 81.1864C68.4009 81.1277 72.9332 81.159 77.706 81.1919C86.0377 81.2494 95.1024 81.312 104.202 80.9097C105.243 80.8776 106.325 80.847 107.44 80.8156C115.512 80.5875 125.256 80.3123 132.87 79.0692C133.341 79.0547 133.82 79.037 134.306 79.0165C133.44 79.0107 132.575 78.9927 131.71 78.9623C128.877 77.7347 131.842 77.2748 137.73 76.9175C138.614 76.9486 139.771 76.9375 141.033 76.9254C143.941 76.8975 147.41 76.8643 149.416 77.328L149.374 77.8725C151.585 77.6596 153.777 77.4381 155.888 77.2242C155.895 77.1694 155.899 77.1139 155.904 77.0584C156.302 77.0723 156.7 77.0862 157.098 77.1016C158.654 76.9439 160.157 76.7923 161.582 76.6536C175.851 76.5958 190.163 75.9631 204.519 74.7553C204.541 74.4678 203.841 74.2982 203.14 74.1285C202.44 73.9589 201.739 73.7893 201.761 73.5018C196.114 72.7198 193.269 72.6163 190.424 72.5129C193.648 72.1989 197.263 71.9799 200.979 71.7546C207.203 71.3774 213.71 70.9831 219.136 70.0973C220.314 70.1401 221.5 70.0843 222.889 70.019C224.854 69.9265 227.226 69.8149 230.56 69.9361C230.516 70.5111 227.628 70.9827 227.628 70.9827C233.296 71.4771 238.997 71.5403 244.698 71.6035C250.399 71.6666 256.1 71.7298 261.769 72.2242C258.902 72.4083 256.046 72.4486 253.19 72.4889C250.334 72.5292 247.478 72.5695 244.611 72.7535C242.68 73.8063 238.423 73.8025 234.884 73.7992C232.972 73.7975 231.269 73.7959 230.256 73.9613C230.212 74.5364 230.212 74.5364 227.324 75.0079C221.503 76.5261 215.769 76.8942 210.079 76.6873C206.859 76.894 205.42 77.3473 203.754 77.8721C202.454 78.2818 201.014 78.7351 198.482 79.1486C201.815 79.2699 205.163 79.1938 207.937 79.1307C209.898 79.0861 211.572 79.0481 212.751 79.0909C218.484 78.7228 227.063 78.4582 235.598 78.7685C239.945 78.9266 242.682 78.3532 245.02 77.8634C245.743 77.712 246.427 77.5686 247.109 77.4573C248.841 77.8766 250.589 78.0763 253.005 78.3523ZM157.098 77.1016C159.611 77.1985 162.12 77.3525 164.597 77.9238L164.509 79.0435C161.596 78.9417 155.772 78.738 152.903 78.0763C155.527 78.168 155.823 77.7227 155.888 77.2242C156.033 77.2095 156.177 77.1949 156.321 77.1803C156.581 77.1539 156.84 77.1277 157.098 77.1016ZM149.374 77.8725L149.372 77.8905C144.318 78.6742 139.297 79.0496 134.306 79.0165C138.899 78.8227 144.189 78.3714 149.374 77.8725ZM-397.056 72.5461C-402.862 72.8643 -410.957 73.0641 -419.013 72.7777C-419.013 72.7777 -418.969 72.208 -421.833 71.535C-421.833 71.535 -418.926 71.6384 -418.881 71.0687C-413.067 71.2753 -404.345 71.5854 -395.579 71.3257L-395.628 71.9594L-400.077 71.7976C-399.274 72.1626 -398.218 72.3902 -397.056 72.5461ZM-271.835 61.8271C-271.905 61.7526 -271.998 61.6786 -272.088 61.6072C-272.588 61.2083 -272.983 60.8936 -268.719 61.0427C-268.734 61.2391 -268.022 61.3228 -267.222 61.4168C-267.213 61.4178 -267.204 61.4189 -267.195 61.42C-268.793 61.6155 -270.359 61.738 -271.835 61.8271ZM-300.44 56.98C-300.903 56.9897 -301.359 56.9986 -301.805 57.0072C-304.769 57.0647 -307.329 57.1144 -308.987 57.3762C-309.882 57.4317 -310.71 57.4896 -311.48 57.5435C-315.357 57.8148 -317.762 57.983 -319.962 57.2202L-320.616 56.9629L-320.608 56.8562C-318.195 56.9002 -315.786 56.9878 -313.377 57.0754C-310.532 57.1788 -308.388 57.1127 -306.243 57.0465C-304.446 56.9911 -302.649 56.9356 -300.44 56.98ZM-374.111 59.8752C-373.947 59.8633 -373.786 59.8517 -373.627 59.8402C-369.936 59.5731 -367.643 59.4071 -365.403 59.9238C-367.998 60.3257 -370.592 60.7277 -375.095 60.3041C-374.995 60.2608 -374.898 60.2162 -374.798 60.1704C-374.595 60.0772 -374.38 59.9788 -374.111 59.8752ZM-361.975 61.1111L-365.987 60.1855C-363.074 60.2874 -360.162 60.3892 -354.293 60.033C-354.315 60.313 -353.598 60.4784 -352.881 60.6439C-352.164 60.8093 -351.447 60.9747 -351.469 61.2547C-351.496 61.6007 -352.619 61.6939 -354.171 61.8228C-355.13 61.9025 -356.252 61.9958 -357.382 62.1707L-358.513 61.9097C-357.853 61.8896 -357.192 61.8692 -356.532 61.8488C-359.377 61.7454 -359.334 61.1703 -359.334 61.1703C-360.21 61.1385 -361.087 61.1202 -361.975 61.1111ZM-548.04 19.225C-547.446 19.237 -546.875 19.2532 -546.33 19.2739C-534.948 19.7059 -523.566 20.1379 -512.14 19.9694C-498.28 20.0079 -486.342 20.763 -474.794 21.9734C-479.109 21.9278 -483.646 21.742 -487.559 21.334C-496.138 21.5986 -504.717 21.8633 -516.097 21.4494L-541.703 20.5183C-542.551 20.3128 -543.661 20.0979 -544.871 19.8633C-545.887 19.6664 -546.975 19.4556 -548.04 19.225ZM1320.24 39.4655C1321.7 39.5164 1323.16 39.4274 1324.63 39.3383C1326.1 39.2492 1327.57 39.1602 1329.02 39.2111C1331.89 39.8729 1334.76 40.5346 1334.71 41.0945L1320.15 40.5852L1320.24 39.4655ZM281.009 74.6174C286.701 74.2608 289.526 74.3607 292.35 74.4606C295.218 74.0041 300.867 74.2039 303.692 74.3038C301.572 73.8036 301.068 73.6846 300.967 73.41C300.936 73.3242 300.943 73.2233 300.954 73.0909C303.865 72.0779 306.776 71.0648 309.644 70.6082C315.293 70.8081 318.117 70.908 323.81 70.5514C328.133 69.5883 333.836 69.0925 339.54 68.5967C345.243 68.101 350.946 67.6052 355.269 66.6421C349.663 65.8858 346.839 65.7858 343.971 66.2424C341.125 66.4207 339.691 66.649 338.615 66.8202C337.54 66.9914 336.823 67.1056 335.411 67.0556C332.543 67.5122 329.718 67.4123 326.894 67.3123C321.158 68.2255 315.466 68.5821 306.992 68.2824C305.595 68.2329 304.889 68.208 304.186 68.2505C303.466 68.294 302.749 68.4082 301.299 68.639C293.595 69.3709 283.603 70.0218 273.445 69.8533L270.087 69.7669L272.31 69.8765C274.476 70.0136 276.16 70.2119 277.617 70.3834C278.979 70.5437 280.141 70.6806 281.311 70.722L295.434 71.2216C295.348 72.3346 292.523 72.2347 289.699 72.1347C286.852 72.3131 284.701 72.6555 282.551 72.9979C280.4 73.3403 278.249 73.6828 275.403 73.8611C275.403 73.8611 272.535 74.3177 272.492 74.8741C275.36 74.4176 278.184 74.5175 281.009 74.6174ZM46.2337 77.5017C41.1381 77.6342 36.1027 77.7651 30.0691 77.5467C32.7868 79.3919 35.6366 79.4951 38.4863 79.5983L39.5499 79.6351C41.3952 79.6917 41.7495 79.6333 44.2299 79.224C52.8233 78.9528 61.4166 78.6817 70.0539 77.8298C60.2211 77.1381 53.1716 77.3214 46.2337 77.5017ZM1.84097 67.289C8.43904 68.3836 15.1621 67.8069 20.498 67.3491C21.9446 67.225 23.2893 67.1097 24.5018 67.0387L30.0662 68.3263L38.5337 68.6375C40.7053 68.5105 42.4593 68.4471 43.9574 68.3929C46.3813 68.3054 48.1352 68.242 49.9045 67.9723C51.2986 67.7598 52.0138 67.6508 52.716 67.4822C53.4558 67.3045 54.1811 67.0605 55.6706 66.5596C41.5984 65.5009 35.9129 65.8335 24.5422 66.4987C21.7601 65.8549 18.9375 65.7512 16.115 65.6474C14.7038 65.5956 13.2824 65.6787 11.861 65.7619C10.4397 65.845 9.0184 65.9282 7.60705 65.8763C7.58213 66.2101 8.6507 66.3772 10.1275 66.6081C11.0401 66.7509 12.1087 66.918 13.1714 67.1639C11.7602 67.112 9.63322 67.1692 7.50625 67.2264C5.37928 67.2837 3.25232 67.3409 1.84097 67.289ZM24.4378 77.2697C21.5255 77.1678 18.5692 77.6259 15.6128 78.0839C15.5249 79.2036 21.3936 78.8475 24.3498 78.3894L24.4378 77.2697ZM4.73458 63.3773C5.94086 63.4195 7.15477 63.3656 8.57695 63.3025C10.5881 63.2132 13.016 63.1055 16.428 63.2248C10.6472 62.4612 7.73483 62.3594 7.73483 62.3594C6.86898 62.4936 6.00688 62.5797 5.29263 62.651C3.56844 62.8233 2.70635 62.9094 4.73458 63.3773ZM-91.1936 60.5614C-91.241 60.4707 -91.2321 60.3498 -91.2199 60.1849C-86.9287 60.0345 -83.3488 59.8577 -79.769 59.6809C-76.1892 59.5041 -72.6093 59.3273 -68.318 59.177C-66.9039 59.5428 -66.204 59.7239 -65.4909 59.8272C-64.7921 59.9284 -64.0808 59.9549 -62.6723 60.0073C-62.6571 59.8012 -62.3257 59.6068 -61.9944 59.4124C-61.3316 59.0236 -60.6688 58.6349 -62.5355 58.1519L-48.3073 58.6816C-44.5405 59.2356 -43.2869 59.42 -42.0245 59.5128C-41.3949 59.5591 -40.7631 59.5826 -39.8161 59.6179L-19.8967 60.3595C-17.3385 60.4547 -14.7711 60.425 -11.9443 60.3923C-8.48225 60.3522 -4.63122 60.3076 0.0683689 60.4826C-5.71414 61.5076 -11.4053 61.2958 -17.0967 61.0839C-19.9537 61.1326 -22.8078 61.1426 -25.6619 61.1526C-34.2245 61.1827 -42.7871 61.2128 -51.4268 62.2865C-65.7461 62.9937 -77.083 61.9515 -88.4199 60.9093C-90.5067 60.8316 -91.0632 60.8109 -91.1936 60.5614ZM-89.4024 56.2681C-86.5408 56.6657 -84.356 56.4521 -82.1712 56.2385C-79.9866 56.0249 -77.8018 55.8113 -74.9402 56.2089C-66.3334 57.1094 -60.5662 57.3197 -51.8271 56.4653C-51.0032 56.4953 -50.1866 56.6209 -49.3699 56.7464C-47.3281 57.0603 -45.2864 57.3741 -43.1322 56.1958L-43.0881 55.6108C-50.2973 55.3479 -56.8074 55.4038 -63.3176 55.4597C-69.8278 55.5155 -76.3379 55.5714 -83.5471 55.3085L-89.4024 56.2681ZM-271.242 49.3584C-256.993 49.8744 -242.701 49.8096 -231.257 49.6416C-245.506 49.1257 -259.799 49.1905 -271.242 49.3584ZM-546.172 23.8735C-541.915 24.3037 -538.371 24.7074 -534.826 25.111C-531.511 25.4886 -528.195 25.8662 -524.296 26.2656C-523.423 25.3472 -518.237 25.0934 -515.596 25.7028C-515.632 26.1588 -517.6 26.5473 -521.477 26.5656C-520.652 26.7572 -520.67 26.9961 -520.67 26.9961C-514.947 26.9384 -509.234 27.016 -503.522 27.0936C-497.809 27.1712 -492.097 27.2488 -486.374 27.1911C-486.334 26.65 -483.443 26.2153 -480.552 25.7806C-474.361 25.8437 -468.447 25.9485 -462.721 26.05C-449.953 26.2762 -438.125 26.4859 -426.258 26.1796L-426.218 25.6384C-428.297 24.7469 -430.443 24.7685 -432.589 24.7901C-433.304 24.7974 -434.02 24.8046 -434.732 24.778C-440.033 25.2464 -445.304 25.3068 -449.913 25.3597C-452.81 25.3929 -455.446 25.4231 -457.662 25.5498C-472.597 24.9923 -485.39 24.9283 -499.807 24.8561L-502.669 24.8417L-504.16 24.8339L-506.214 24.8226C-509.065 24.7161 -514.768 24.5032 -517.579 23.8556C-524.348 23.603 -531.141 23.6891 -539.353 23.7932C-541.519 23.8207 -543.783 23.8494 -546.172 23.8735ZM-521.477 26.5656C-521.83 26.5673 -522.2 26.5658 -522.586 26.5611L-524.405 26.5175L-524.421 26.517C-524.414 26.4283 -524.371 26.3445 -524.296 26.2656L-523.481 26.3485L-523.465 26.3491L-522.428 26.4179C-522.026 26.4585 -521.716 26.51 -521.477 26.5656ZM-509.323 31.3619C-505.074 31.514 -500.814 31.5227 -496.554 31.5313C-492.294 31.5399 -488.034 31.5485 -483.786 31.7006C-483.486 31.7114 -483.219 31.7274 -482.976 31.7476C-469.783 31.7515 -456.923 31.6824 -444.705 31.5898C-421.795 31.2898 -401.824 32.0226 -379 32.8601C-377.59 32.9119 -376.876 32.9381 -376.166 32.8952C-375.439 32.8514 -374.716 32.7354 -373.252 32.5008C-369.137 33.4868 -366.483 33.5023 -363.117 33.5219C-361.885 33.5291 -360.558 33.5369 -359.029 33.593C-357.847 33.6363 -356.169 33.6001 -354.202 33.5576C-351.421 33.4975 -348.064 33.425 -344.722 33.5477C-350.47 33.907 -350.513 34.4758 -350.555 35.0445C-351.728 35.2326 -353.356 35.2167 -355.072 35.1999C-357.592 35.1754 -360.305 35.1489 -362.053 35.7633C-359.2 35.868 -356.336 35.8305 -353.472 35.793C-350.609 35.7555 -347.745 35.718 -344.892 35.8227C-339.186 36.0321 -333.48 36.2414 -330.584 35.7774C-329.511 36.0346 -328.854 36.2766 -328.292 36.4832C-327.384 36.8176 -326.727 37.0596 -324.963 37.1243C-337.489 38.0833 -349.948 38.1626 -361.031 38.233C-367.77 38.2759 -374 38.3155 -379.426 38.5477C-386.601 38.8547 -393.042 38.9036 -399.482 38.9524C-405.923 39.0012 -412.363 39.0501 -419.539 39.3571C-424.524 39.3729 -429.505 39.3196 -434.606 39.265C-444.145 39.163 -454.106 39.0565 -465.314 39.3883C-466.762 39.6204 -468.902 39.5418 -471.042 39.4633C-473.182 39.3848 -475.321 39.3063 -476.769 39.5383C-482.475 39.329 -485.328 39.2243 -490.991 38.4461C-491.006 38.6357 -490.703 38.8369 -490.4 39.0382C-489.794 39.4406 -489.189 39.843 -491.119 40.1524C-491.162 40.7212 -494.057 41.1852 -494.057 41.1852C-499.636 39.2696 -502.404 38.0274 -505.171 36.7852C-496.527 35.9617 -487.926 35.707 -479.367 36.0211C-473.639 35.9461 -468.636 35.9871 -463.632 36.0281C-458.629 36.0692 -453.626 36.1102 -447.898 36.0352C-445.416 35.6374 -442.966 35.6575 -440.519 35.7373L-439.867 35.7595L-440.238 35.7448C-442.149 35.6669 -442.144 35.6047 -442.107 35.107C-447.813 34.8977 -453.519 34.6883 -459.268 35.0477C-461.17 34.9779 -463.067 34.8449 -464.964 34.7119C-468.759 34.4459 -472.553 34.1799 -476.386 34.4195C-479.281 34.8836 -479.281 34.8836 -482.134 34.7789C-489.93 33.7078 -497.807 33.7144 -504.751 33.7201C-507.896 33.7228 -510.849 33.7252 -513.518 33.6273C-519.224 33.418 -524.887 32.6398 -533.361 31.1882L-527.655 31.3976C-521.544 31.4999 -515.431 31.5761 -509.344 31.6309L-509.323 31.3619ZM-482.976 31.7476C-491.651 31.7449 -500.469 31.7107 -509.344 31.6309L-509.367 31.9359C-502.689 32.5155 -496.957 32.4568 -491.042 32.3963C-486.96 32.3545 -482.791 32.3118 -478.164 32.4774C-479.581 32.4267 -480.278 32.2579 -480.975 32.089C-481.525 31.9559 -482.074 31.8228 -482.976 31.7476ZM-503.519 52.8216C-505.49 52.9795 -507.87 53.1701 -511.256 53.7132C-502.717 54.0137 -499.871 54.1139 -494.222 54.878C-492.01 54.5232 -491.491 54.44 -491.349 54.1678C-491.306 54.0843 -491.298 53.983 -491.288 53.8506C-492.689 53.5187 -494.101 53.3276 -495.513 53.1366C-496.925 52.9456 -498.338 52.7546 -499.739 52.4226C-500.936 52.6146 -502.126 52.7099 -503.519 52.8216ZM-549.211 68.6538C-549.167 68.0939 -552.035 67.4322 -560.772 67.1266C-559.439 67.4342 -558.418 67.7006 -557.562 67.9237C-554.736 68.6609 -553.715 68.9272 -549.211 68.6538ZM-600.819 63.7264C-597.951 64.3881 -595.038 64.4899 -589.214 64.6936C-589.17 64.1337 -592.082 64.0319 -592.082 64.0319C-594.95 63.3702 -597.863 63.2683 -600.819 63.7264ZM-590.76 81.0122C-591.119 80.2936 -592.764 80.2361 -599.303 80.0074L-590.697 81.9898C-590.664 81.5674 -590.639 81.2528 -590.76 81.0122ZM-617.431 53.7718C-617.538 55.142 -613.681 55.1602 -610.676 55.1744C-609.988 55.1776 -609.345 55.1806 -608.805 55.1996C-605.9 55.3014 -602.996 55.4032 -600.047 54.9438C-604.436 53.4847 -610.693 53.6421 -614.648 53.7415C-615.809 53.7707 -616.772 53.7949 -617.431 53.7718ZM-640.114 43.0772C-640.82 42.7968 -641.58 42.4947 -642.337 42.15C-639.419 42.252 -636.501 42.354 -633.536 41.8639C-627.746 42.66 -624.874 43.3541 -622.003 44.0482C-622.029 44.3789 -621.824 44.6714 -621.642 44.9296C-621.175 45.5962 -620.867 46.0349 -625.107 46.3147C-627.979 45.6206 -633.815 45.4166 -636.733 45.3146C-636.665 44.4477 -638.186 43.8434 -640.114 43.0772ZM-647.48 45.5791C-650.349 44.9174 -647.393 44.4594 -644.436 44.0013L-650.173 42.6779C-651.421 42.6342 -652.693 42.8991 -653.966 43.1639C-655.662 43.5171 -657.359 43.8702 -658.998 43.4921C-659.94 43.8116 -660.586 44.0309 -660.58 44.2144C-660.568 44.6154 -657.441 44.8456 -647.48 45.5791ZM-659.349 48.2636C-665.041 47.5296 -670.773 47.325 -679.453 48.0773C-673.558 46.1638 -667.785 45.8388 -662.011 45.5137C-651.855 46.8235 -650.76 46.9647 -650.671 47.356C-650.66 47.4033 -650.664 47.4542 -650.669 47.5113C-653.576 47.9386 -656.483 48.3658 -659.349 48.2636ZM-694.818 55.8572C-688.965 55.523 -683.154 55.7274 -674.48 56.5726C-671.574 56.6748 -668.669 56.777 -668.711 57.3156C-671.7 58.2904 -671.742 58.829 -671.742 58.829C-671.76 59.0521 -671.271 59.2003 -670.699 59.3739C-669.89 59.6195 -668.914 59.9159 -668.963 60.5468C-674.732 59.8039 -677.595 59.1631 -680.459 58.5224C-683.322 57.8816 -686.228 57.7794 -692.081 58.1135C-694.903 56.9342 -694.86 56.3957 -694.818 55.8572ZM-592.872 29.5279C-598.007 29.8396 -600.879 29.8005 -603.468 29.7177L-604.566 29.6804C-604.61 30.2403 -601.741 30.902 -595.873 30.5458C-593.324 30.6349 -592.972 30.2174 -592.894 29.7366L-592.872 29.5279ZM-675.598 66.196L-684.106 65.9C-685.524 65.8507 -686.222 65.6885 -686.92 65.5264C-687.618 65.3643 -688.316 65.2022 -689.734 65.1528C-691.131 64.8286 -691.818 64.529 -692.505 64.2294C-693.193 63.9298 -693.88 63.6303 -695.276 63.3061C-698.112 63.2074 -700.904 62.5589 -700.904 62.5589L-700.861 62.0091C-697.982 61.5579 -695.146 61.6566 -695.146 61.6566C-692.31 61.7553 -689.431 61.3041 -692.223 60.6557C-695.292 59.6329 -700.167 59.3928 -704.854 59.1618C-708.632 58.9757 -712.288 58.7956 -714.78 58.2168C-711.341 57.3562 -708.99 57.6197 -706.456 57.9038C-704.714 58.099 -702.885 58.304 -700.557 58.1604L-697.678 57.7092C-700.427 56.5109 -703.176 55.3126 -703.089 54.213C-703.053 53.754 -704.013 53.3564 -704.93 52.9761C-706.211 52.4454 -707.411 51.9484 -705.708 51.3653C-702.872 51.4639 -705.665 50.8154 -705.665 50.8154C-700.487 51.1638 -695.57 51.4518 -690.835 51.729C-680.049 52.3606 -670.214 52.9366 -660.421 54.0436L-669.059 55.397C-663.56 57.7936 -655.096 58.6395 -646.632 59.4853C-646.675 60.0351 -643.883 60.6836 -643.883 60.6836C-646.741 60.8598 -648.868 60.7858 -650.64 60.7242C-652.412 60.6625 -653.83 60.6132 -655.27 60.8387C-653.137 61.3339 -652.633 61.451 -652.534 61.7235C-652.503 61.8078 -652.51 61.9071 -652.521 62.037L-654.417 62.2015C-656.648 62.4616 -657.724 62.8665 -658.713 63.2388C-659.445 63.5145 -660.13 63.7723 -661.202 63.9403C-661.227 64.2577 -662.183 64.359 -664.095 64.5615C-665.494 64.7098 -667.406 64.9124 -669.84 65.2937C-668.247 65.3491 -667.576 65.7202 -666.8 66.1498C-666.193 66.4851 -665.523 66.8562 -664.298 67.1405C-665.561 67.3383 -666.286 67.6608 -666.942 67.9522C-667.782 68.3256 -668.508 68.648 -670.1 68.5926C-672.914 68.219 -672.882 67.8067 -672.849 67.3943C-672.817 66.982 -672.784 66.5696 -675.598 66.196ZM-606.899 36.2119L-601.2 36.4182C-601.242 36.9745 -601.284 37.5307 -604.134 37.4275C-601.973 37.7188 -600.228 37.995 -598.737 38.2309C-596.326 38.6127 -594.58 38.8889 -592.819 38.9527L-595.711 39.4057C-590.054 40.1683 -584.397 40.9309 -581.589 41.5903C-581.631 42.1465 -578.824 42.8059 -573.082 42.4561C-578.908 43.9183 -584.565 43.1558 -587.373 42.4964L-596.049 43.8555C-596.068 44.1099 -597.253 43.972 -598.811 43.7908C-600.658 43.5759 -603.029 43.3001 -604.598 43.5459C-601.79 44.2053 -598.983 44.8647 -596.218 46.0803C-594.814 46.41 -593.389 46.4616 -591.964 46.5132C-590.539 46.5648 -589.114 46.6164 -587.71 46.9461C-579.14 46.9776 -571.293 47.1222 -563.445 47.267C-555.598 47.4116 -547.75 47.5563 -539.18 47.5878C-537.393 47.3078 -536.694 46.9884 -535.728 46.547C-535.131 46.2742 -534.432 45.9548 -533.312 45.5693C-533.396 46.6817 -533.438 47.2379 -530.588 47.3411C-528.827 47.4049 -527.05 47.2562 -524.594 47.0507C-523.076 46.9237 -521.298 46.775 -519.105 46.6414C-516.255 46.7446 -513.395 46.7087 -510.535 46.6729C-507.674 46.637 -504.814 46.6011 -501.964 46.7043C-499.114 46.8075 -496.223 46.3544 -499.03 45.695C-497.011 45.7681 -495.339 45.6887 -493.772 45.6142C-490.915 45.4785 -488.407 45.3593 -484.781 46.211C-484.781 46.211 -487.631 46.1078 -487.673 46.664C-487.678 46.7324 -487.683 46.7925 -487.666 46.8448C-487.542 47.218 -486.308 47.2026 -476.274 47.0767L-481.889 45.7579C-476.19 45.9643 -473.34 46.0675 -470.406 45.0582C-473.298 45.5113 -478.955 44.7487 -481.763 44.0893C-484.613 43.9861 -487.473 44.0219 -490.333 44.0578C-493.193 44.0937 -496.054 44.1296 -498.904 44.0264C-504.603 43.82 -507.453 43.7168 -510.345 44.1699C-512.751 44.2001 -515 44.2298 -517.124 44.2579L-517.148 44.2582C-535.2 44.497 -544.226 44.6164 -564.617 43.878L-564.575 43.3218C-561.291 42.8074 -558.98 42.9769 -556.545 43.1555C-554.691 43.2915 -552.765 43.4327 -550.284 43.2815C-550.273 43.142 -550.265 43.0374 -550.214 42.9608C-550.062 42.7318 -549.527 42.7512 -547.392 42.8285C-547.307 41.716 -547.265 41.1598 -550.073 40.5004C-552.923 40.3972 -555.081 40.598 -557.239 40.7987C-559.398 40.9994 -561.556 41.2001 -564.406 41.0969L-570.106 40.8906C-570.079 40.5468 -571.174 40.5886 -572.687 40.6462C-573.622 40.6819 -574.717 40.7236 -575.805 40.6842C-576.985 40.6415 -578.159 40.5033 -579.533 40.3414C-581.477 40.1125 -583.823 39.8361 -587.162 39.7153C-581.742 39.9115 -577.433 39.6192 -574.279 39.4052C-572.458 39.2816 -571.022 39.1842 -569.979 39.2219C-568.167 39.2875 -566.484 39.3735 -564.903 39.4543C-559.023 39.7548 -554.537 39.9841 -549.946 38.8318C-547.096 38.9349 -541.397 39.1413 -535.74 39.9039C-532.848 39.4509 -532.805 38.8946 -532.805 38.8946L-532.763 38.3384C-534.631 38.631 -537.651 38.4166 -541.092 38.1725C-542.979 38.0385 -544.993 37.8956 -547.012 37.8225L-549.862 37.7193C-553.865 37.9632 -556.442 37.7166 -558.601 37.5098C-559.539 37.4201 -560.398 37.3378 -561.261 37.3066C-565.39 37.5582 -569.476 37.2344 -572.506 36.9943C-573.688 36.9006 -574.71 36.8196 -575.51 36.7907C-584.153 35.6256 -592.822 34.785 -600.225 34.0671C-602.513 33.8453 -604.68 33.6352 -606.688 33.4308C-606.662 33.087 -607.741 32.9163 -609.231 32.6804C-610.152 32.5346 -611.231 32.3638 -612.304 32.112L-617.919 30.7932C-619.706 31.0732 -621.461 30.9282 -623.887 30.728C-625.386 30.6042 -627.141 30.4593 -629.318 30.3804L-634.933 29.0616L-635.017 30.1741C-641.204 30.3517 -644.37 29.771 -647.77 29.1472C-649.091 28.9048 -650.448 28.6559 -652.031 28.4425L-654.881 28.3394C-654.923 28.8956 -654.923 28.8956 -657.815 29.3486C-659.603 29.6286 -661.374 29.6961 -663.822 29.7895C-665.334 29.8471 -667.106 29.9147 -669.299 30.0483C-669.341 30.6045 -666.533 31.2639 -663.726 31.9233C-664.36 32.0226 -664.992 32.0952 -665.563 32.1608C-667.597 32.3945 -668.861 32.5397 -666.702 33.4888C-666.723 33.7669 -666.032 34.0708 -665.341 34.3747C-664.649 34.6786 -663.958 34.9825 -663.979 35.2607C-660.142 36.1619 -654.895 36.0723 -650.138 35.9911C-647.934 35.9534 -645.835 35.9176 -644.031 35.9829C-642.926 35.8099 -642.237 35.6218 -641.649 35.4611C-640.697 35.2012 -640.008 35.0131 -638.247 35.0769C-643.862 33.7581 -643.82 33.2018 -643.778 32.6456C-640.885 32.1926 -638.046 32.4348 -635.207 32.6771C-632.368 32.9193 -629.529 33.1615 -626.637 32.7085C-626.637 32.7085 -623.745 32.2555 -623.703 31.6992L-620.853 31.8024C-618.045 32.4618 -618.087 33.018 -618.13 33.5743C-619.591 33.8032 -620.314 33.9165 -621.039 33.9592C-621.749 34.001 -622.462 33.9752 -623.871 33.9241C-623.882 34.0649 -623.89 34.1701 -623.85 34.2503C-623.731 34.487 -623.192 34.5065 -621.064 34.5835C-619.901 34.8567 -618.234 34.9566 -616.282 35.0738C-613.521 35.2394 -610.189 35.4393 -606.899 36.2119ZM258.897 76.0406C261.431 75.648 263.997 74.844 264.706 74.2698L264.898 74.0048C263.403 74.2363 262.664 74.3508 261.923 74.3942C261.197 74.4368 260.469 74.4113 259.029 74.3609C259.014 74.5476 258.676 74.7229 258.338 74.8982C257.661 75.2488 256.985 75.5994 258.897 76.0406Z" fill="white"></path>
</g>
</svg>