<svg width="62" height="140" viewBox="0 0 62 140" fill="none" xmlns="http://www.w3.org/2000/svg">
<path fill-rule="evenodd" clip-rule="evenodd" d="M3.03437 83.6849C3.53973 83.2664 2.52174 82.455 2.17301 81.9928C2.18769 82.4706 2.65763 83.0924 3.03437 83.6849ZM29.284 105.507C28.4232 106.324 28.1556 108.017 27.3206 108.503C27.6246 108.008 28.4258 106.649 28.525 106.21C27.9295 106.8 27.4428 108.008 26.844 108.528C26.8284 109.101 26.806 109.674 26.7786 110.248C27.6046 108.727 28.4208 107.176 29.284 105.507ZM24.9847 104.73C24.945 106.07 24.7934 108.377 24.6536 110.238C24.7863 110 24.9281 109.775 25.0643 109.541C25.0968 108.617 25.1019 107.783 25.0653 107.183C25.0476 107.355 25.0664 107.593 24.9747 107.623C25.0105 106.313 25.3294 105.401 24.9847 104.73ZM23.8011 108.71C23.8732 109.484 23.8038 110.148 23.768 110.731C23.8532 110.594 23.9332 110.453 24.0195 110.318C24.0293 109.65 24.0151 109.02 23.8011 108.71ZM15.7319 96.0171C15.9294 96.4808 15.7539 96.4823 15.7848 97.0742C15.9708 97.038 16.1427 95.9732 15.7319 96.0171ZM15.5246 98.645C15.7412 98.5369 15.7775 97.9564 15.5814 97.7325C15.3485 97.7901 15.5731 98.3749 15.5246 98.645ZM20.7706 115.575C20.7231 115.521 20.6893 115.455 20.6981 115.404C20.6989 115.397 20.6988 115.391 20.7005 115.385C20.6645 115.427 20.6283 115.469 20.5925 115.512C20.5884 115.515 20.5857 115.521 20.5826 115.524C20.5802 115.62 20.5787 115.716 20.5758 115.809C20.6419 115.733 20.706 115.655 20.7706 115.575ZM22.2348 114.397C22.3179 114.253 22.4009 114.109 22.4826 113.967C22.4998 113.938 22.5162 113.908 22.5325 113.879C22.528 113.883 22.526 113.887 22.5222 113.89C22.3421 113.022 22.8092 113.794 22.801 113.21C22.6046 113.311 22.5568 113.199 22.5078 113.09C22.4284 113.23 22.3567 113.363 22.2865 113.495C22.2547 113.776 22.2411 114.083 22.2348 114.397ZM21.0853 115.369L21.1349 115.303L21.2143 115.191C21.208 115.12 21.1877 115.036 21.1802 114.941C21.1275 115.021 21.0739 115.102 21.022 115.181C21.037 115.255 21.0505 115.33 21.0536 115.409C21.0633 115.396 21.0747 115.382 21.0853 115.369ZM24.3395 110.825C24.1768 111.154 23.998 111.498 23.8154 111.844C23.8082 111.975 23.7868 112.071 23.7448 111.977C23.6709 112.117 23.5975 112.254 23.5243 112.392C23.5527 112.689 23.557 112.988 23.5053 113.265C23.6722 112.95 23.8404 112.632 24.006 112.32C24.1119 112.117 24.2155 111.914 24.3207 111.712C24.3296 111.414 24.3373 111.118 24.3395 110.825ZM15.1755 103.57C15.3356 103.898 15.4825 104.239 15.6307 104.578C15.4794 103.442 15.4043 102.2 15.1065 101.362C15.0935 102.083 15.1237 102.824 15.1755 103.57ZM45.2785 105.482C45.3559 105.049 45.5128 105.138 45.8114 104.701C45.6257 104.632 44.8893 105.301 45.2785 105.482ZM46.9089 103.646C46.6601 103.615 46.3034 104.016 46.3492 104.276C46.5834 104.351 46.7154 103.816 46.9089 103.646ZM57.1835 85.5921L57.9758 84.666C57.959 84.5715 56.7625 85.5014 57.1835 85.5921ZM51.9291 88.4084C51.5517 88.321 51.6953 88.6947 51.2992 88.8698C51.7189 89.1292 51.6823 88.7049 51.9291 88.4084ZM32.5034 6.55386C33.0809 6.33106 32.3687 5.02409 32.1758 4.38406C32.059 4.89987 32.3207 5.76192 32.5034 6.55386ZM6.77779 94.3348C6.68245 94.1869 6.2078 93.8341 6.1246 93.6333C6.03391 93.4143 6.18964 92.8631 5.99842 92.52C5.88025 92.3071 5.60376 92.2469 5.53329 92.126C5.53329 92.126 5.63092 91.9195 5.49555 91.6996C5.35424 91.4684 5.16456 91.3091 4.98089 91.0414C4.18352 89.8775 4.29038 89.0611 3.99063 87.8493C3.60511 87.5669 3.19941 87.647 2.83831 86.9415C2.7889 86.2044 2.96388 85.4027 2.46121 84.7681C2.73956 84.3709 2.56034 85.2121 2.86951 85.0513C2.97937 84.1912 4.16107 83.2204 3.7015 82.4663C4.22606 81.5934 5.00527 82.3736 5.28124 81.9266C5.41752 82.0415 5.53719 82.5298 5.68629 82.3785C6.38805 81.4247 7.28186 83.0364 7.74499 82.4075C7.89342 83.4037 8.55578 83.438 9.10921 83.8242C9.13107 83.5266 8.80052 83.586 8.99043 83.2873C9.56419 84.3245 10.1541 84.9911 10.7447 85.3458C10.4918 84.8901 11.04 85.1802 11.0638 84.7723C11.2534 85.15 11.7852 86.0767 11.6299 86.059C11.2074 85.3571 11.0016 85.7243 11.0443 85.1056C10.9142 85.2309 10.8371 85.3752 10.8751 85.5559C11.5581 86.3292 12.3521 86.8684 12.3896 87.6603C12.6587 87.9224 12.9502 87.8357 13.2318 87.9417L13.7527 88.7909C14.845 89.6228 16.043 91.3185 17.1673 93.2037C18.2493 95.1247 19.2924 97.2024 20.0176 98.8593C20.9778 99.5298 21.2342 101.099 22.0025 102.212C22.1505 102.426 22.2825 102.658 22.423 102.881C22.4973 102.854 22.5485 102.793 22.5211 102.616C22.3156 102.901 22.4193 102.586 22.2458 102.489C21.6375 89.0232 21.4519 72.6246 20.9338 60.3503C20.8902 59.3613 20.6794 58.0492 20.6744 57.8765C20.4557 51.3402 19.9899 45.0659 19.2299 38.7563C19.0354 37.2302 18.9198 35.5472 18.7895 33.9643C18.339 28.1833 17.2389 21.9803 16.4245 16.9614C16.2986 16.0558 16.271 15.2043 16.0934 14.4117C16.0495 14.2196 15.713 13.6521 15.6968 13.4134C15.6789 13.152 15.9916 12.6623 15.9166 12.2312C15.8632 11.9676 15.616 11.7901 15.5822 11.6404C15.5822 11.6404 15.732 11.4741 15.6631 11.197C15.5918 10.9063 15.4566 10.667 15.3551 10.3212C14.9249 8.81392 15.2331 8.05011 15.2525 6.7112C14.9559 6.27823 14.548 6.21071 14.3846 5.36216C14.5036 4.61333 14.8365 3.86762 14.4789 3.05863C14.8319 2.74298 14.4837 3.5413 14.8193 3.47762C15.1037 2.64009 16.4565 2.02178 16.1511 1.0698C16.8299 0.311612 17.4498 1.41283 17.8077 1.03477C17.9214 1.20699 17.9488 1.77326 18.1246 1.66531C18.9991 0.894638 19.5932 2.97915 20.176 2.49239C20.1192 3.62677 20.728 3.93371 21.1819 4.58746C21.2736 4.27795 20.9389 4.2006 21.194 3.96034C21.5031 5.32034 21.9334 6.2913 22.3963 6.9269C22.2726 6.33183 22.7223 6.88322 22.8518 6.46294C22.936 6.94803 23.2022 8.16776 23.0578 8.07878C22.8366 7.14604 22.5424 7.44181 22.7459 6.8064C22.5876 6.88165 22.4771 6.99953 22.4648 7.20752C22.9156 8.32759 23.5446 9.26358 23.3598 10.1109C23.5353 10.5093 23.836 10.5551 24.0684 10.7965L24.3061 11.9283C25.1311 13.307 25.7312 15.6301 26.1976 18.1091C26.6206 20.5843 26.9169 23.2153 27.0625 25.2334C27.7464 26.3685 27.4825 28.0852 27.828 29.5697C29.0203 34.4056 28.5892 39.8743 29.4879 44.1984C29.4864 44.4892 29.2668 44.5055 29.2653 44.7963C30.3251 52.2332 30.4435 61.4076 30.9896 70.0785C31.2672 69.8937 31.2232 70.2811 31.3693 70.3293C31.0904 74.3025 31.2745 77.978 30.8615 81.629C30.8331 80.7353 30.7565 79.9074 30.583 79.2577C30.5422 79.5961 30.7399 80.2667 30.5386 80.3848C30.2813 78.8282 30.3571 75.8407 30.1908 74.3648C30.2072 74.6052 30.1364 74.7291 30.0284 74.7991C29.913 72.5094 30.056 70.6261 29.7718 67.7854C29.8066 74.7805 30.001 79.9926 30.4855 86.4287C30.7444 85.1197 30.1126 83.3308 30.5224 82.3537C30.5213 83.0161 30.5819 84.8099 30.7188 85.2919C30.8985 84.257 30.6052 82.5581 30.9569 81.7636C31.7221 87.0237 31.6342 92.2013 31.705 97.4559C31.4422 96.5853 31.7153 94.817 31.4373 93.9584C31.3965 94.1269 31.3478 94.2808 31.2659 94.3888C31.3593 93.2592 30.9653 91.9664 31.2861 91.7193C31.3068 91.9282 31.2668 92.2383 31.3914 92.2758C31.4527 90.1484 30.7357 87.9424 30.8302 85.8467C30.6707 86.2012 30.6359 86.8205 30.7846 87.2531C30.4889 87.203 30.2595 87.9297 30.5421 88.2504C30.5113 87.8511 30.5062 87.4865 30.7937 87.5334C30.6633 88.9295 31.2126 90.602 30.8237 91.4631C30.8052 90.213 30.7135 88.9304 30.6414 88.5262C30.5385 89.5833 30.676 90.9264 30.8253 92.221C30.8287 91.9475 30.9318 91.6705 31.0199 92.0141C30.7399 92.7928 31.443 95.3189 30.9327 95.5282C30.9527 94.7184 31.0473 94.2579 30.7808 93.29C30.6059 93.5405 30.701 94.8754 30.5453 94.7054C30.4903 94.5045 30.6329 93.9757 30.4364 94.0103C30.5741 95.1993 30.3273 97.1131 30.6163 97.6476C30.5288 97.068 30.714 96.4716 30.5858 96.2462C30.8564 95.9277 30.9493 96.1384 31.1215 95.7995C31.1901 96.9651 31.3897 98.6295 31.9133 98.5695C32.0408 100.798 32.0459 103.265 31.9505 105.791C33.6015 101.445 35.8471 97.5884 38.0851 93.6283C37.9147 94.4707 36.8804 95.6717 36.7284 96.5111C36.8363 96.4051 36.9452 96.3139 37.0611 96.2806C36.4827 97.1048 36.2375 98.3535 35.8609 98.3506C35.9361 98.1749 36.1077 97.9576 36.0194 97.8526C35.0223 99.474 34.6339 101.622 33.6444 103.206C33.9366 103.026 34.2343 102.564 34.2996 102.135C34.5247 102.353 35.0333 101.924 34.9381 101.501C34.7894 101.833 34.6335 102.12 34.4148 101.911C35.126 100.894 35.4305 99.2685 36.1332 98.8323C35.5928 99.8169 35.0941 100.867 34.9758 101.227C35.5307 100.465 36.0197 99.3416 36.4682 98.2404C36.3437 98.4512 36.1346 98.6049 36.214 98.2824C36.7875 97.8455 37.3289 95.4483 37.856 95.6027C37.4694 96.2169 37.1826 96.5159 36.9782 97.4341C37.2328 97.3453 37.7474 96.2477 37.8033 96.4775C37.7561 96.6664 37.4048 96.9906 37.5832 97.0838C38.0015 96.0772 39.0748 94.7485 39.0723 94.1527C38.8848 94.657 38.4634 95.0055 38.4673 95.2602C38.0999 95.3395 38.1177 95.1192 37.8223 95.2769C38.2909 94.3292 38.8758 92.9123 38.4156 92.6337C40.031 89.3956 42.3676 85.8169 44.8575 82.6428C46.1402 81.0714 47.4189 79.5843 48.6972 78.3059C49.9987 77.0388 51.215 75.9419 52.353 75.1427C52.1177 75.5824 51.6188 76.1351 51.7866 76.4714C52.2901 75.6062 53.0229 74.3103 53.745 73.6967C52.929 74.7487 52.5255 75.8613 51.647 76.6802C51.4629 76.4301 51.8139 76.018 51.8483 75.6999C51.3495 76.2676 50.4685 76.7742 50.8689 77.0006C50.4949 77.0413 50.4511 77.6787 50.3818 77.901C50.2162 78.0232 50.0421 77.5796 49.8815 77.974C49.7921 78.1775 49.9893 78.0292 50.1002 78.1551C49.5679 78.456 49.2593 78.5577 48.9727 79.3401C48.2797 79.5237 47.7209 80.5262 47.4008 80.9696C47.0971 81.3928 46.6567 81.6466 46.234 82.1317C44.8276 83.7448 43.0168 86.5533 42.3862 88.0445C42.4721 87.9234 42.5493 87.7228 42.6492 87.7704C42.0936 88.7662 41.4151 89.2293 41.4805 90.0194C41.8551 89.3684 42.4268 88.4334 43.0287 87.4963C43.6446 86.5649 44.28 85.6261 44.7495 84.9486C44.8346 84.7915 45.0117 84.5469 44.953 84.7878C44.5621 85.6096 43.6418 86.6314 43.6906 87.2859C44.088 86.4578 44.5963 85.9265 44.922 85.3915C45.3024 84.7712 45.5525 83.5948 46.4454 83.5636C46.1404 84.3427 46.1818 83.4714 45.8964 83.9322C46.2059 83.9871 45.9781 84.2398 46.0682 84.3753C46.8021 83.7906 47.5271 82.0275 48.3056 82.002C48.5523 82.3874 47.8985 82.5366 47.9804 82.6971C48.1526 82.4436 48.2408 82.8664 48.1374 82.9779C47.6847 83.4114 47.5054 83.8977 47.1481 84.5715C49.6383 81.01 50.3765 79.9544 52.6404 76.7166C52.5392 77.1104 52.0756 77.8689 52.651 77.3789C52.3186 78.0867 51.731 78.87 51.5589 79.5278C52.0318 78.6974 52.7142 77.8656 53.0796 77.584C52.2098 79.0126 51.253 80.4119 50.7892 81.9197C51.0209 81.6946 50.9261 81.1628 51.2485 81.1848C51.1719 81.4048 51.0122 81.6511 51.067 81.8282C51.5702 80.9041 51.882 80.9366 52.5059 80.3122C52.1118 81.0773 52.0439 80.8379 51.5503 81.587C52.1815 81.3251 51.4187 82.138 51.5899 82.4059C51.7425 82.1378 51.8932 81.8876 52.0639 82.0024C51.2664 82.7415 50.6077 84.0777 50.3127 84.9821C50.4118 85.0579 50.4946 84.852 50.5919 84.8894C50.2216 85.8991 49.7479 86.0498 49.6183 87.3753C49.7623 87.0998 49.9379 87.2455 50.0941 87.123C49.7961 87.4343 49.8989 87.6919 49.9429 87.9271C50.0564 87.7586 50.0993 87.0711 50.3939 87.3512C50.2824 88.105 48.8323 89.23 49.3823 89.7902C48.8297 89.9358 49.1007 90.6326 48.4958 91.1034C48.7904 92.552 47.429 94.5647 47.2755 96.0772C48.3896 94.1908 49.1256 91.7566 49.9478 89.7553C50.0224 90.7914 48.916 92.585 48.5591 94.0046C48.3998 94.6083 48.4374 94.6658 48.2617 95.2845C48.1612 95.2308 48.0625 95.1874 47.9878 95.3886C48.284 95.3021 48.0576 95.4753 48.1566 95.6568C45.3827 100.946 42.3128 106.799 39.2997 112.544C38.5498 113.988 37.8052 115.425 37.0697 116.845L36.5191 117.907C36.2479 118.454 35.9771 118.998 35.7077 119.539C35.1234 120.72 34.5442 121.892 33.9715 123.05C31.6692 127.782 29.5051 132.425 27.5712 136.561C26.6681 138.134 25.801 138.25 25.6681 137.805C24.9634 135.456 24.2477 133.135 23.5525 130.914C23.1404 129.633 22.7295 128.357 22.3197 127.084L22.0126 126.145L21.6871 125.288L21.0366 123.585L20.3863 121.891L19.7504 120.397L18.4745 117.451C17.8821 116.196 17.3044 114.932 16.6723 113.692C16.0569 112.491 15.4831 111.12 14.8922 109.85C12.8032 105.181 9.96542 100.41 7.78127 96.4223C7.395 95.7085 7.16104 94.9504 6.77779 94.3348Z" fill="#FFEB00"></path>
</svg>